<svg width="16" height="16" viewBox="0 0 16 16" fill="none" xmlns="http://www.w3.org/2000/svg">
<rect width="16" height="16" fill="#1E1E1E"/>
<g id="Section 2">
<path d="M-4789 -4542C-4789 -4543.1 -4788.1 -4544 -4787 -4544H5878C5879.1 -4544 5880 -4543.1 5880 -4542V8675C5880 8676.1 5879.1 8677 5878 8677H-4787C-4788.1 8677 -4789 8676.1 -4789 8675V-4542Z" fill="white" fill-opacity="0.19"/>
<path d="M-4787 -4543H5878V-4545H-4787V-4543ZM5879 -4542V8675H5881V-4542H5879ZM5878 8676H-4787V8678H5878V8676ZM-4788 8675V-4542H-4790V8675H-4788ZM-4787 8676C-4787.55 8676 -4788 8675.55 -4788 8675H-4790C-4790 8676.66 -4788.66 8678 -4787 8678V8676ZM5879 8675C5879 8675.55 5878.55 8676 5878 8676V8678C5879.66 8678 5881 8676.66 5881 8675H5879ZM5878 -4543C5878.55 -4543 5879 -4542.55 5879 -4542H5881C5881 -4543.66 5879.66 -4545 5878 -4545V-4543ZM-4787 -4545C-4788.66 -4545 -4790 -4543.66 -4790 -4542H-4788C-4788 -4542.55 -4787.55 -4543 -4787 -4543V-4545Z" fill="black" fill-opacity="0.1"/>
<g id="Loads" clip-path="url(#clip0_0_1)">
<rect width="1440" height="1024" transform="translate(-610 -836)" fill="#F8F9FA"/>
<g id="framed-embedded-table">
<g clip-path="url(#clip1_0_1)">
<mask id="path-3-inside-1_0_1" fill="white">
<path d="M-331 -624C-331 -632.837 -323.837 -640 -315 -640H830V176H-315C-323.837 176 -331 168.837 -331 160V-624Z"/>
</mask>
<path d="M-331 -624C-331 -632.837 -323.837 -640 -315 -640H830V176H-315C-323.837 176 -331 168.837 -331 160V-624Z" fill="white"/>
<g id="Frame 33647">
<g id="Frame 33660">
<g id="Table Header">
<mask id="path-5-inside-2_0_1" fill="white">
<path d="M-86.4502 -8.5H27.5498V47.5H-86.4502V-8.5Z"/>
</mask>
<path d="M-86.4502 -8.5H27.5498V47.5H-86.4502V-8.5Z" fill="white"/>
<path d="M27.5498 46.4828H-86.4502V48.5172H27.5498V46.4828Z" fill="#E5E7E8" mask="url(#path-5-inside-2_0_1)"/>
<path id="label" d="M-73.7362 22.978C-72.5509 22.026 -71.6222 21.2467 -70.9502 20.64C-70.2782 20.024 -69.7135 19.3847 -69.2562 18.722C-68.7895 18.05 -68.5562 17.392 -68.5562 16.748C-68.5562 16.1413 -68.7055 15.6653 -69.0042 15.32C-69.2935 14.9653 -69.7649 14.788 -70.4182 14.788C-71.0529 14.788 -71.5475 14.9887 -71.9022 15.39C-72.2475 15.782 -72.4342 16.3093 -72.4622 16.972H-73.6942C-73.6569 15.9267 -73.3395 15.1193 -72.7422 14.55C-72.1449 13.9807 -71.3749 13.696 -70.4322 13.696C-69.4709 13.696 -68.7102 13.962 -68.1502 14.494C-67.5809 15.026 -67.2962 15.7587 -67.2962 16.692C-67.2962 17.4667 -67.5295 18.2227 -67.9962 18.96C-68.4535 19.688 -68.9762 20.332 -69.5642 20.892C-70.1522 21.4427 -70.9035 22.0867 -71.8182 22.824H-67.0022V23.888H-73.7362V22.978ZM-65.2495 18.834C-65.2495 17.2287 -64.9881 15.978 -64.4655 15.082C-63.9428 14.1767 -63.0281 13.724 -61.7215 13.724C-60.4241 13.724 -59.5141 14.1767 -58.9915 15.082C-58.4688 15.978 -58.2075 17.2287 -58.2075 18.834C-58.2075 20.4673 -58.4688 21.7367 -58.9915 22.642C-59.5141 23.5473 -60.4241 24 -61.7215 24C-63.0281 24 -63.9428 23.5473 -64.4655 22.642C-64.9881 21.7367 -65.2495 20.4673 -65.2495 18.834ZM-59.4675 18.834C-59.4675 18.022 -59.5235 17.336 -59.6355 16.776C-59.7381 16.2067 -59.9575 15.7493 -60.2935 15.404C-60.6201 15.0587 -61.0961 14.886 -61.7215 14.886C-62.3561 14.886 -62.8415 15.0587 -63.1775 15.404C-63.5041 15.7493 -63.7235 16.2067 -63.8355 16.776C-63.9381 17.336 -63.9895 18.022 -63.9895 18.834C-63.9895 19.674 -63.9381 20.3787 -63.8355 20.948C-63.7235 21.5173 -63.5041 21.9747 -63.1775 22.32C-62.8415 22.6653 -62.3561 22.838 -61.7215 22.838C-61.0961 22.838 -60.6201 22.6653 -60.2935 22.32C-59.9575 21.9747 -59.7381 21.5173 -59.6355 20.948C-59.5235 20.3787 -59.4675 19.674 -59.4675 18.834ZM-56.3324 22.978C-55.1471 22.026 -54.2184 21.2467 -53.5464 20.64C-52.8744 20.024 -52.3098 19.3847 -51.8524 18.722C-51.3858 18.05 -51.1524 17.392 -51.1524 16.748C-51.1524 16.1413 -51.3018 15.6653 -51.6004 15.32C-51.8898 14.9653 -52.3611 14.788 -53.0144 14.788C-53.6491 14.788 -54.1438 14.9887 -54.4984 15.39C-54.8438 15.782 -55.0304 16.3093 -55.0584 16.972H-56.2904C-56.2531 15.9267 -55.9358 15.1193 -55.3384 14.55C-54.7411 13.9807 -53.9711 13.696 -53.0284 13.696C-52.0671 13.696 -51.3064 13.962 -50.7464 14.494C-50.1771 15.026 -49.8924 15.7587 -49.8924 16.692C-49.8924 17.4667 -50.1258 18.2227 -50.5924 18.96C-51.0498 19.688 -51.5724 20.332 -52.1604 20.892C-52.7484 21.4427 -53.4998 22.0867 -54.4144 22.824H-49.5984V23.888H-56.3324V22.978ZM-47.8737 16.426C-47.8084 15.5673 -47.477 14.8953 -46.8797 14.41C-46.2824 13.9247 -45.5077 13.682 -44.5557 13.682C-43.921 13.682 -43.375 13.7987 -42.9177 14.032C-42.451 14.256 -42.101 14.564 -41.8677 14.956C-41.625 15.348 -41.5037 15.7913 -41.5037 16.286C-41.5037 16.8647 -41.6717 17.364 -42.0077 17.784C-42.3344 18.204 -42.7637 18.4747 -43.2957 18.596V18.666C-42.689 18.8153 -42.2084 19.1093 -41.8537 19.548C-41.499 19.9867 -41.3217 20.5607 -41.3217 21.27C-41.3217 21.802 -41.443 22.2827 -41.6857 22.712C-41.9284 23.132 -42.2924 23.4633 -42.7777 23.706C-43.263 23.9487 -43.8464 24.07 -44.5277 24.07C-45.517 24.07 -46.329 23.8133 -46.9637 23.3C-47.5984 22.7773 -47.953 22.04 -48.0277 21.088H-46.7957C-46.7304 21.648 -46.5017 22.1053 -46.1097 22.46C-45.7177 22.8147 -45.195 22.992 -44.5417 22.992C-43.8884 22.992 -43.3937 22.824 -43.0577 22.488C-42.7124 22.1427 -42.5397 21.6993 -42.5397 21.158C-42.5397 20.458 -42.773 19.954 -43.2397 19.646C-43.7064 19.338 -44.411 19.184 -45.3537 19.184H-45.6757V18.12H-45.3397C-44.481 18.1107 -43.8324 17.9707 -43.3937 17.7C-42.955 17.42 -42.7357 16.9907 -42.7357 16.412C-42.7357 15.9173 -42.899 15.5207 -43.2257 15.222C-43.543 14.9233 -44.0004 14.774 -44.5977 14.774C-45.1764 14.774 -45.643 14.9233 -45.9977 15.222C-46.3524 15.5207 -46.5624 15.922 -46.6277 16.426H-47.8737ZM-33.7916 18.33V19.408H-39.3776V18.33H-33.7916ZM-31.4846 22.978C-30.2993 22.026 -29.3706 21.2467 -28.6986 20.64C-28.0266 20.024 -27.462 19.3847 -27.0046 18.722C-26.538 18.05 -26.3046 17.392 -26.3046 16.748C-26.3046 16.1413 -26.454 15.6653 -26.7526 15.32C-27.042 14.9653 -27.5133 14.788 -28.1666 14.788C-28.8013 14.788 -29.296 14.9887 -29.6506 15.39C-29.996 15.782 -30.1826 16.3093 -30.2106 16.972H-31.4426C-31.4053 15.9267 -31.088 15.1193 -30.4906 14.55C-29.8933 13.9807 -29.1233 13.696 -28.1806 13.696C-27.2193 13.696 -26.4586 13.962 -25.8986 14.494C-25.3293 15.026 -25.0446 15.7587 -25.0446 16.692C-25.0446 17.4667 -25.278 18.2227 -25.7446 18.96C-26.202 19.688 -26.7246 20.332 -27.3126 20.892C-27.9006 21.4427 -28.652 22.0867 -29.5666 22.824H-24.7506V23.888H-31.4846V22.978ZM-21.1499 18.736C-21.6726 18.5307 -22.0739 18.232 -22.3539 17.84C-22.6339 17.448 -22.7739 16.972 -22.7739 16.412C-22.7739 15.908 -22.6479 15.4553 -22.3959 15.054C-22.1439 14.6433 -21.7706 14.3213 -21.2759 14.088C-20.7719 13.8453 -20.1652 13.724 -19.4559 13.724C-18.7466 13.724 -18.1446 13.8453 -17.6499 14.088C-17.1459 14.3213 -16.7679 14.6433 -16.5159 15.054C-16.2546 15.4553 -16.1239 15.908 -16.1239 16.412C-16.1239 16.9533 -16.2686 17.4293 -16.5579 17.84C-16.8472 18.2413 -17.2439 18.54 -17.7479 18.736C-17.1692 18.9133 -16.7119 19.226 -16.3759 19.674C-16.0306 20.1127 -15.8579 20.6447 -15.8579 21.27C-15.8579 21.8767 -16.0072 22.4087 -16.3059 22.866C-16.6046 23.314 -17.0292 23.664 -17.5799 23.916C-18.1212 24.1587 -18.7466 24.28 -19.4559 24.28C-20.1652 24.28 -20.7906 24.1587 -21.3319 23.916C-21.8639 23.664 -22.2792 23.314 -22.5779 22.866C-22.8766 22.4087 -23.0259 21.8767 -23.0259 21.27C-23.0259 20.6447 -22.8579 20.108 -22.5219 19.66C-22.1859 19.212 -21.7286 18.904 -21.1499 18.736ZM-17.3559 16.566C-17.3559 15.9967 -17.5426 15.558 -17.9159 15.25C-18.2892 14.942 -18.8026 14.788 -19.4559 14.788C-20.0999 14.788 -20.6086 14.942 -20.9819 15.25C-21.3552 15.558 -21.5419 16.0013 -21.5419 16.58C-21.5419 17.1027 -21.3506 17.5227 -20.9679 17.84C-20.5759 18.1573 -20.0719 18.316 -19.4559 18.316C-18.8306 18.316 -18.3266 18.1573 -17.9439 17.84C-17.5519 17.5133 -17.3559 17.0887 -17.3559 16.566ZM-19.4559 19.296C-20.1466 19.296 -20.7112 19.4593 -21.1499 19.786C-21.5886 20.1033 -21.8079 20.584 -21.8079 21.228C-21.8079 21.8253 -21.5979 22.306 -21.1779 22.67C-20.7486 23.034 -20.1746 23.216 -19.4559 23.216C-18.7372 23.216 -18.1679 23.034 -17.7479 22.67C-17.3279 22.306 -17.1179 21.8253 -17.1179 21.228C-17.1179 20.6027 -17.3326 20.1267 -17.7619 19.8C-18.1912 19.464 -18.7559 19.296 -19.4559 19.296ZM-8.35587 18.33V19.408H-13.9419V18.33H-8.35587ZM-5.89493 18.834C-5.89493 17.2287 -5.6336 15.978 -5.11093 15.082C-4.58827 14.1767 -3.6736 13.724 -2.36693 13.724C-1.0696 13.724 -0.159598 14.1767 0.363068 15.082C0.885735 15.978 1.14707 17.2287 1.14707 18.834C1.14707 20.4673 0.885735 21.7367 0.363068 22.642C-0.159598 23.5473 -1.0696 24 -2.36693 24C-3.6736 24 -4.58827 23.5473 -5.11093 22.642C-5.6336 21.7367 -5.89493 20.4673 -5.89493 18.834ZM-0.112931 18.834C-0.112931 18.022 -0.168931 17.336 -0.280931 16.776C-0.383598 16.2067 -0.602932 15.7493 -0.938932 15.404C-1.2656 15.0587 -1.7416 14.886 -2.36693 14.886C-3.0016 14.886 -3.48693 15.0587 -3.82293 15.404C-4.1496 15.7493 -4.36893 16.2067 -4.48093 16.776C-4.5836 17.336 -4.63493 18.022 -4.63493 18.834C-4.63493 19.674 -4.5836 20.3787 -4.48093 20.948C-4.36893 21.5173 -4.1496 21.9747 -3.82293 22.32C-3.48693 22.6653 -3.0016 22.838 -2.36693 22.838C-1.7416 22.838 -1.2656 22.6653 -0.938932 22.32C-0.602932 21.9747 -0.383598 21.5173 -0.280931 20.948C-0.168931 20.3787 -0.112931 19.674 -0.112931 18.834ZM3.14808 16.426C3.21342 15.5673 3.54475 14.8953 4.14208 14.41C4.73942 13.9247 5.51408 13.682 6.46608 13.682C7.10075 13.682 7.64675 13.7987 8.10408 14.032C8.57075 14.256 8.92075 14.564 9.15408 14.956C9.39675 15.348 9.51808 15.7913 9.51808 16.286C9.51808 16.8647 9.35008 17.364 9.01408 17.784C8.68742 18.204 8.25808 18.4747 7.72608 18.596V18.666C8.33275 18.8153 8.81342 19.1093 9.16808 19.548C9.52275 19.9867 9.70008 20.5607 9.70008 21.27C9.70008 21.802 9.57875 22.2827 9.33608 22.712C9.09342 23.132 8.72942 23.4633 8.24408 23.706C7.75875 23.9487 7.17542 24.07 6.49408 24.07C5.50475 24.07 4.69275 23.8133 4.05808 23.3C3.42342 22.7773 3.06875 22.04 2.99408 21.088H4.22608C4.29142 21.648 4.52008 22.1053 4.91208 22.46C5.30408 22.8147 5.82675 22.992 6.48008 22.992C7.13342 22.992 7.62808 22.824 7.96408 22.488C8.30942 22.1427 8.48208 21.6993 8.48208 21.158C8.48208 20.458 8.24875 19.954 7.78208 19.646C7.31542 19.338 6.61075 19.184 5.66808 19.184H5.34608V18.12H5.68208C6.54075 18.1107 7.18942 17.9707 7.62808 17.7C8.06675 17.42 8.28608 16.9907 8.28608 16.412C8.28608 15.9173 8.12275 15.5207 7.79608 15.222C7.47875 14.9233 7.02142 14.774 6.42408 14.774C5.84542 14.774 5.37875 14.9233 5.02408 15.222C4.66942 15.5207 4.45942 15.922 4.39408 16.426H3.14808Z" fill="#414449"/>
</g>
</g>
</g>
</g>
<path d="M830 -640H831V-641H830V-640ZM830 176V177H831V176H830ZM-315 -639H830V-641H-315V-639ZM829 -640V176H831V-640H829ZM830 175H-315V177H830V175ZM-330 160V-624H-332V160H-330ZM-315 175C-323.284 175 -330 168.284 -330 160H-332C-332 169.389 -324.389 177 -315 177V175ZM-315 -641C-324.389 -641 -332 -633.389 -332 -624H-330C-330 -632.284 -323.284 -639 -315 -639V-641Z" fill="#E5E7E8" mask="url(#path-3-inside-1_0_1)"/>
</g>
<g id="Group 427319090">
</g>
<g id="List dialog" filter="url(#filter0_d_0_1)">
<g clip-path="url(#clip2_0_1)">
<rect x="-18" y="-540" width="312" height="608" rx="16" fill="white"/>
<g id="List">
<g id="state-layer">
<g id="Icon">
<g id="cardboard-box">
<g id="g2925">
<g id="g2927">
<g id="Clip path group">
<mask id="mask0_0_1" style="mask-type:luminance" maskUnits="userSpaceOnUse" x="0" y="0" width="16" height="16">
<g id="clipPath2933">
<path id="path2931" d="M0 9.53674e-07H16V16H0V9.53674e-07Z" fill="white"/>
</g>
</mask>
<g mask="url(#mask0_0_1)">
<g id="g2929">
<path id="path2935" d="M15.5312 5.17578H0.46875V2.35156H15.5312V5.17578Z" stroke="#414449" stroke-width="0.9375" stroke-miterlimit="10" stroke-linecap="round" stroke-linejoin="round"/>
<path id="path2937" d="M14.5898 13.6484H1.41016V5.17578H14.5898V13.6484Z" stroke="#414449" stroke-width="0.9375" stroke-miterlimit="10" stroke-linecap="round" stroke-linejoin="round"/>
<g id="g2939">
<path id="path2941" d="M8.94141 8.94141H7.05859C6.53866 8.94141 6.11719 8.51994 6.11719 8C6.11719 7.48006 6.53866 7.05859 7.05859 7.05859H8.94141C9.46134 7.05859 9.88281 7.48006 9.88281 8C9.88281 8.51994 9.46134 8.94141 8.94141 8.94141Z" stroke="#414449" stroke-width="0.9375" stroke-miterlimit="10" stroke-linecap="round" stroke-linejoin="round"/>
</g>
</g>
</g>
</g>
</g>
</g>
</g>
</g>
</g>
</g>
</g>
</g>
</g>
</g>
<defs>
<filter id="filter0_d_0_1" x="-131" y="-653" width="540" height="836" filterUnits="userSpaceOnUse" color-interpolation-filters="sRGB">
<feFlood flood-opacity="0" result="BackgroundImageFix"/>
<feColorMatrix in="SourceAlpha" type="matrix" values="0 0 0 0 0 0 0 0 0 0 0 0 0 0 0 0 0 0 127 0" result="hardAlpha"/>
<feOffset dx="1" dy="1"/>
<feGaussianBlur stdDeviation="57"/>
<feComposite in2="hardAlpha" operator="out"/>
<feColorMatrix type="matrix" values="0 0 0 0 0 0 0 0 0 0 0 0 0 0 0 0 0 0 0.05 0"/>
<feBlend mode="normal" in2="BackgroundImageFix" result="effect1_dropShadow_0_1"/>
<feBlend mode="normal" in="SourceGraphic" in2="effect1_dropShadow_0_1" result="shape"/>
</filter>
<clipPath id="clip0_0_1">
<rect width="1440" height="1024" fill="white" transform="translate(-610 -836)"/>
</clipPath>
<clipPath id="clip1_0_1">
<path d="M-331 -624C-331 -632.837 -323.837 -640 -315 -640H830V176H-315C-323.837 176 -331 168.837 -331 160V-624Z" fill="white"/>
</clipPath>
<clipPath id="clip2_0_1">
<rect x="-18" y="-540" width="312" height="608" rx="16" fill="white"/>
</clipPath>
</defs>
</svg>
