<svg width="20" height="20" viewBox="0 0 20 20" fill="none" xmlns="http://www.w3.org/2000/svg">
<rect width="20" height="20" fill="#1E1E1E"/>
<g id="Section 2">
<path d="M-4787 -4508C-4787 -4509.1 -4786.1 -4510 -4785 -4510H5880C5881.1 -4510 5882 -4509.1 5882 -4508V8709C5882 8710.1 5881.1 8711 5880 8711H-4785C-4786.1 8711 -4787 8710.1 -4787 8709V-4508Z" fill="white" fill-opacity="0.19"/>
<path d="M-4785 -4509H5880V-4511H-4785V-4509ZM5881 -4508V8709H5883V-4508H5881ZM5880 8710H-4785V8712H5880V8710ZM-4786 8709V-4508H-4788V8709H-4786ZM-4785 8710C-4785.55 8710 -4786 8709.55 -4786 8709H-4788C-4788 8710.66 -4786.66 8712 -4785 8712V8710ZM5881 8709C5881 8709.55 5880.55 8710 5880 8710V8712C5881.66 8712 5883 8710.66 5883 8709H5881ZM5880 -4509C5880.55 -4509 5881 -4508.55 5881 -4508H5883C5883 -4509.66 5881.66 -4511 5880 -4511V-4509ZM-4785 -4511C-4786.66 -4511 -4788 -4509.66 -4788 -4508H-4786C-4786 -4508.55 -4785.55 -4509 -4785 -4509V-4511Z" fill="black" fill-opacity="0.1"/>
<g id="Loads" clip-path="url(#clip0_0_1)">
<rect width="1440" height="1024" transform="translate(-608 -802)" fill="#F8F9FA"/>
<g id="framed-embedded-table">
<g clip-path="url(#clip1_0_1)">
<mask id="path-3-inside-1_0_1" fill="white">
<path d="M-329 -590C-329 -598.837 -321.837 -606 -313 -606H832V210H-313C-321.837 210 -329 202.837 -329 194V-590Z"/>
</mask>
<path d="M-329 -590C-329 -598.837 -321.837 -606 -313 -606H832V210H-313C-321.837 210 -329 202.837 -329 194V-590Z" fill="white"/>
<g id="Frame 33647">
<g id="Frame 33659">
<g id="Table Header">
<mask id="path-5-inside-2_0_1" fill="white">
<path d="M-84.4502 -30.5H29.5498V25.5H-84.4502V-30.5Z"/>
</mask>
<path d="M-84.4502 -30.5H29.5498V25.5H-84.4502V-30.5Z" fill="white"/>
<path d="M29.5498 24.4828H-84.4502V26.5172H29.5498V24.4828Z" fill="#E5E7E8" mask="url(#path-5-inside-2_0_1)"/>
<path id="label" d="M-71.7362 0.978C-70.5509 0.0259999 -69.6222 -0.753333 -68.9502 -1.36C-68.2782 -1.976 -67.7135 -2.61533 -67.2562 -3.278C-66.7895 -3.95 -66.5562 -4.608 -66.5562 -5.252C-66.5562 -5.85867 -66.7055 -6.33467 -67.0042 -6.68C-67.2935 -7.03467 -67.7649 -7.212 -68.4182 -7.212C-69.0529 -7.212 -69.5475 -7.01133 -69.9022 -6.61C-70.2475 -6.218 -70.4342 -5.69067 -70.4622 -5.028H-71.6942C-71.6569 -6.07333 -71.3395 -6.88067 -70.7422 -7.45C-70.1449 -8.01933 -69.3749 -8.304 -68.4322 -8.304C-67.4709 -8.304 -66.7102 -8.038 -66.1502 -7.506C-65.5809 -6.974 -65.2962 -6.24133 -65.2962 -5.308C-65.2962 -4.53333 -65.5295 -3.77733 -65.9962 -3.04C-66.4535 -2.312 -66.9762 -1.668 -67.5642 -1.108C-68.1522 -0.557333 -68.9035 0.0866666 -69.8182 0.824H-65.0022V1.888H-71.7362V0.978ZM-63.2495 -3.166C-63.2495 -4.77133 -62.9881 -6.022 -62.4655 -6.918C-61.9428 -7.82333 -61.0281 -8.276 -59.7215 -8.276C-58.4241 -8.276 -57.5141 -7.82333 -56.9915 -6.918C-56.4688 -6.022 -56.2075 -4.77133 -56.2075 -3.166C-56.2075 -1.53267 -56.4688 -0.263333 -56.9915 0.642C-57.5141 1.54733 -58.4241 2 -59.7215 2C-61.0281 2 -61.9428 1.54733 -62.4655 0.642C-62.9881 -0.263333 -63.2495 -1.53267 -63.2495 -3.166ZM-57.4675 -3.166C-57.4675 -3.978 -57.5235 -4.664 -57.6355 -5.224C-57.7381 -5.79333 -57.9575 -6.25067 -58.2935 -6.596C-58.6201 -6.94133 -59.0961 -7.114 -59.7215 -7.114C-60.3561 -7.114 -60.8415 -6.94133 -61.1775 -6.596C-61.5041 -6.25067 -61.7235 -5.79333 -61.8355 -5.224C-61.9381 -4.664 -61.9895 -3.978 -61.9895 -3.166C-61.9895 -2.326 -61.9381 -1.62133 -61.8355 -1.052C-61.7235 -0.482667 -61.5041 -0.0253334 -61.1775 0.32C-60.8415 0.665333 -60.3561 0.838 -59.7215 0.838C-59.0961 0.838 -58.6201 0.665333 -58.2935 0.32C-57.9575 -0.0253334 -57.7381 -0.482667 -57.6355 -1.052C-57.5235 -1.62133 -57.4675 -2.326 -57.4675 -3.166ZM-54.3324 0.978C-53.1471 0.0259999 -52.2184 -0.753333 -51.5464 -1.36C-50.8744 -1.976 -50.3098 -2.61533 -49.8524 -3.278C-49.3858 -3.95 -49.1524 -4.608 -49.1524 -5.252C-49.1524 -5.85867 -49.3018 -6.33467 -49.6004 -6.68C-49.8898 -7.03467 -50.3611 -7.212 -51.0144 -7.212C-51.6491 -7.212 -52.1438 -7.01133 -52.4984 -6.61C-52.8438 -6.218 -53.0304 -5.69067 -53.0584 -5.028H-54.2904C-54.2531 -6.07333 -53.9358 -6.88067 -53.3384 -7.45C-52.7411 -8.01933 -51.9711 -8.304 -51.0284 -8.304C-50.0671 -8.304 -49.3064 -8.038 -48.7464 -7.506C-48.1771 -6.974 -47.8924 -6.24133 -47.8924 -5.308C-47.8924 -4.53333 -48.1258 -3.77733 -48.5924 -3.04C-49.0498 -2.312 -49.5724 -1.668 -50.1604 -1.108C-50.7484 -0.557333 -51.4998 0.0866666 -52.4144 0.824H-47.5984V1.888H-54.3324V0.978ZM-45.8737 -5.574C-45.8084 -6.43267 -45.477 -7.10467 -44.8797 -7.59C-44.2824 -8.07533 -43.5077 -8.318 -42.5557 -8.318C-41.921 -8.318 -41.375 -8.20133 -40.9177 -7.968C-40.451 -7.744 -40.101 -7.436 -39.8677 -7.044C-39.625 -6.652 -39.5037 -6.20867 -39.5037 -5.714C-39.5037 -5.13533 -39.6717 -4.636 -40.0077 -4.216C-40.3344 -3.796 -40.7637 -3.52533 -41.2957 -3.404V-3.334C-40.689 -3.18467 -40.2084 -2.89067 -39.8537 -2.452C-39.499 -2.01333 -39.3217 -1.43933 -39.3217 -0.73C-39.3217 -0.198 -39.443 0.282667 -39.6857 0.712C-39.9284 1.132 -40.2924 1.46333 -40.7777 1.706C-41.263 1.94867 -41.8464 2.07 -42.5277 2.07C-43.517 2.07 -44.329 1.81333 -44.9637 1.3C-45.5984 0.777333 -45.953 0.0399999 -46.0277 -0.912H-44.7957C-44.7304 -0.352 -44.5017 0.105333 -44.1097 0.46C-43.7177 0.814667 -43.195 0.992 -42.5417 0.992C-41.8884 0.992 -41.3937 0.824 -41.0577 0.488C-40.7124 0.142667 -40.5397 -0.300667 -40.5397 -0.842C-40.5397 -1.542 -40.773 -2.046 -41.2397 -2.354C-41.7064 -2.662 -42.411 -2.816 -43.3537 -2.816H-43.6757V-3.88H-43.3397C-42.481 -3.88933 -41.8324 -4.02933 -41.3937 -4.3C-40.955 -4.58 -40.7357 -5.00933 -40.7357 -5.588C-40.7357 -6.08267 -40.899 -6.47933 -41.2257 -6.778C-41.543 -7.07667 -42.0004 -7.226 -42.5977 -7.226C-43.1764 -7.226 -43.643 -7.07667 -43.9977 -6.778C-44.3524 -6.47933 -44.5624 -6.078 -44.6277 -5.574H-45.8737ZM-31.7916 -3.67V-2.592H-37.3776V-3.67H-31.7916ZM-29.4846 0.978C-28.2993 0.0259999 -27.3706 -0.753333 -26.6986 -1.36C-26.0266 -1.976 -25.462 -2.61533 -25.0046 -3.278C-24.538 -3.95 -24.3046 -4.608 -24.3046 -5.252C-24.3046 -5.85867 -24.454 -6.33467 -24.7526 -6.68C-25.042 -7.03467 -25.5133 -7.212 -26.1666 -7.212C-26.8013 -7.212 -27.296 -7.01133 -27.6506 -6.61C-27.996 -6.218 -28.1826 -5.69067 -28.2106 -5.028H-29.4426C-29.4053 -6.07333 -29.088 -6.88067 -28.4906 -7.45C-27.8933 -8.01933 -27.1233 -8.304 -26.1806 -8.304C-25.2193 -8.304 -24.4586 -8.038 -23.8986 -7.506C-23.3293 -6.974 -23.0446 -6.24133 -23.0446 -5.308C-23.0446 -4.53333 -23.278 -3.77733 -23.7446 -3.04C-24.202 -2.312 -24.7246 -1.668 -25.3126 -1.108C-25.9006 -0.557333 -26.652 0.0866666 -27.5666 0.824H-22.7506V1.888H-29.4846V0.978ZM-14.5439 -7.016H-19.4579V-3.824C-19.2432 -4.12267 -18.9259 -4.36533 -18.5059 -4.552C-18.0859 -4.748 -17.6332 -4.846 -17.1479 -4.846C-16.3732 -4.846 -15.7432 -4.68267 -15.2579 -4.356C-14.7726 -4.03867 -14.4272 -3.62333 -14.2219 -3.11C-14.0072 -2.606 -13.8999 -2.06933 -13.8999 -1.5C-13.8999 -0.828 -14.0259 -0.226 -14.2779 0.306C-14.5299 0.838 -14.9172 1.258 -15.4399 1.566C-15.9532 1.874 -16.5926 2.028 -17.3579 2.028C-18.3379 2.028 -19.1312 1.776 -19.7379 1.272C-20.3446 0.768 -20.7132 0.0959999 -20.8439 -0.744H-19.5979C-19.4766 -0.212 -19.2199 0.203333 -18.8279 0.502C-18.4359 0.800667 -17.9412 0.95 -17.3439 0.95C-16.6066 0.95 -16.0512 0.730667 -15.6779 0.292C-15.3046 -0.156 -15.1179 -0.744 -15.1179 -1.472C-15.1179 -2.2 -15.3046 -2.76 -15.6779 -3.152C-16.0512 -3.55333 -16.6019 -3.754 -17.3299 -3.754C-17.8246 -3.754 -18.2586 -3.63267 -18.6319 -3.39C-18.9959 -3.15667 -19.2619 -2.83467 -19.4299 -2.424H-20.6339V-8.136H-14.5439V-7.016ZM-6.39688 -3.67V-2.592H-11.9829V-3.67H-6.39688ZM-3.93595 -3.166C-3.93595 -4.77133 -3.67461 -6.022 -3.15195 -6.918C-2.62928 -7.82333 -1.71461 -8.276 -0.407947 -8.276C0.889386 -8.276 1.79939 -7.82333 2.32205 -6.918C2.84472 -6.022 3.10605 -4.77133 3.10605 -3.166C3.10605 -1.53267 2.84472 -0.263333 2.32205 0.642C1.79939 1.54733 0.889386 2 -0.407947 2C-1.71461 2 -2.62928 1.54733 -3.15195 0.642C-3.67461 -0.263333 -3.93595 -1.53267 -3.93595 -3.166ZM1.84605 -3.166C1.84605 -3.978 1.79005 -4.664 1.67805 -5.224C1.57539 -5.79333 1.35605 -6.25067 1.02005 -6.596C0.693386 -6.94133 0.217386 -7.114 -0.407947 -7.114C-1.04261 -7.114 -1.52795 -6.94133 -1.86395 -6.596C-2.19061 -6.25067 -2.40995 -5.79333 -2.52195 -5.224C-2.62461 -4.664 -2.67595 -3.978 -2.67595 -3.166C-2.67595 -2.326 -2.62461 -1.62133 -2.52195 -1.052C-2.40995 -0.482667 -2.19061 -0.0253334 -1.86395 0.32C-1.52795 0.665333 -1.04261 0.838 -0.407947 0.838C0.217386 0.838 0.693386 0.665333 1.02005 0.32C1.35605 -0.0253334 1.57539 -0.482667 1.67805 -1.052C1.79005 -1.62133 1.84605 -2.326 1.84605 -3.166ZM5.10707 -5.574C5.1724 -6.43267 5.50373 -7.10467 6.10107 -7.59C6.6984 -8.07533 7.47307 -8.318 8.42507 -8.318C9.05973 -8.318 9.60573 -8.20133 10.0631 -7.968C10.5297 -7.744 10.8797 -7.436 11.1131 -7.044C11.3557 -6.652 11.4771 -6.20867 11.4771 -5.714C11.4771 -5.13533 11.3091 -4.636 10.9731 -4.216C10.6464 -3.796 10.2171 -3.52533 9.68507 -3.404V-3.334C10.2917 -3.18467 10.7724 -2.89067 11.1271 -2.452C11.4817 -2.01333 11.6591 -1.43933 11.6591 -0.73C11.6591 -0.198 11.5377 0.282667 11.2951 0.712C11.0524 1.132 10.6884 1.46333 10.2031 1.706C9.71773 1.94867 9.1344 2.07 8.45307 2.07C7.46373 2.07 6.65173 1.81333 6.01707 1.3C5.3824 0.777333 5.02773 0.0399999 4.95307 -0.912H6.18507C6.2504 -0.352 6.47907 0.105333 6.87107 0.46C7.26307 0.814667 7.78573 0.992 8.43907 0.992C9.0924 0.992 9.58707 0.824 9.92307 0.488C10.2684 0.142667 10.4411 -0.300667 10.4411 -0.842C10.4411 -1.542 10.2077 -2.046 9.74107 -2.354C9.2744 -2.662 8.56973 -2.816 7.62707 -2.816H7.30507V-3.88H7.64107C8.49973 -3.88933 9.1484 -4.02933 9.58707 -4.3C10.0257 -4.58 10.2451 -5.00933 10.2451 -5.588C10.2451 -6.08267 10.0817 -6.47933 9.75507 -6.778C9.43773 -7.07667 8.9804 -7.226 8.38307 -7.226C7.8044 -7.226 7.33773 -7.07667 6.98307 -6.778C6.6284 -6.47933 6.4184 -6.078 6.35307 -5.574H5.10707Z" fill="#414449"/>
</g>
</g>
</g>
</g>
<path d="M832 -606H833V-607H832V-606ZM832 210V211H833V210H832ZM-313 -605H832V-607H-313V-605ZM831 -606V210H833V-606H831ZM832 209H-313V211H832V209ZM-328 194V-590H-330V194H-328ZM-313 209C-321.284 209 -328 202.284 -328 194H-330C-330 203.389 -322.389 211 -313 211V209ZM-313 -607C-322.389 -607 -330 -599.389 -330 -590H-328C-328 -598.284 -321.284 -605 -313 -605V-607Z" fill="#E5E7E8" mask="url(#path-3-inside-1_0_1)"/>
</g>
<g id="Group 427319090">
</g>
<g id="List dialog" filter="url(#filter0_d_0_1)">
<g clip-path="url(#clip2_0_1)">
<rect x="-16" y="-506" width="312" height="608" rx="16" fill="white"/>
<g id="List">
<g id="state-layer">
<g id="dollar-symbol">
<path id="dollar" d="M14.1665 13.0248C14.1661 12.2128 13.8946 11.4241 13.395 10.7839C12.8955 10.1437 12.1965 9.68853 11.409 9.49067L8.9923 8.89234C8.52437 8.77518 8.11546 8.49088 7.84266 8.09305C7.56987 7.69521 7.45203 7.21133 7.51137 6.73261C7.57071 6.2539 7.80313 5.81343 8.1648 5.49424C8.52648 5.17505 8.99242 4.9992 9.4748 4.99984H10.5248C11.0113 5.00019 11.4806 5.17993 11.8428 5.50465C12.205 5.82938 12.4348 6.27629 12.4881 6.75984C12.5129 6.97953 12.6239 7.18038 12.7967 7.31822C12.9696 7.45606 13.1901 7.51959 13.4098 7.49484C13.6295 7.47008 13.8303 7.35907 13.9682 7.18623C14.106 7.01338 14.1696 6.79286 14.1448 6.57317C14.0495 5.73145 13.663 4.94951 13.0522 4.36259C12.4414 3.77566 11.6447 3.42067 10.7998 3.359V2.49984C10.7998 2.27882 10.712 2.06686 10.5557 1.91058C10.3994 1.7543 10.1875 1.6665 9.96647 1.6665C9.74546 1.6665 9.53349 1.7543 9.37721 1.91058C9.22093 2.06686 9.13314 2.27882 9.13314 2.49984V3.36734C8.27896 3.44664 7.48042 3.82568 6.87893 4.43733C6.27745 5.04898 5.91184 5.85376 5.84687 6.70914C5.78189 7.56452 6.02174 8.4153 6.52393 9.11079C7.02612 9.80627 7.75824 10.3016 8.59064 10.509L11.0073 11.1073C11.4739 11.2259 11.8812 11.5106 12.1528 11.9081C12.4244 12.3056 12.5416 12.7886 12.4824 13.2663C12.4231 13.7441 12.1916 14.1838 11.8312 14.503C11.4707 14.8222 11.0062 14.9988 10.5248 14.9998H9.4748C8.98832 14.9995 8.51905 14.8197 8.15681 14.495C7.79457 14.1703 7.56479 13.7234 7.51147 13.2398C7.48672 13.0202 7.37571 12.8193 7.20286 12.6815C7.11728 12.6132 7.01909 12.5625 6.9139 12.5322C6.80871 12.5019 6.69858 12.4926 6.5898 12.5048C6.37012 12.5296 6.16926 12.6406 6.03142 12.8134C5.89358 12.9863 5.83005 13.2068 5.8548 13.4265C5.94889 14.2567 6.32633 15.0292 6.9235 15.6136C7.52067 16.198 8.30106 16.5587 9.13314 16.6348V17.4998C9.13314 17.7209 9.22093 17.9328 9.37721 18.0891C9.53349 18.2454 9.74546 18.3332 9.96647 18.3332C10.1875 18.3332 10.3994 18.2454 10.5557 18.0891C10.712 17.9328 10.7998 17.7209 10.7998 17.4998V16.6398C11.7145 16.5757 12.5707 16.1668 13.1956 15.4958C13.8205 14.8248 14.1675 13.9417 14.1665 13.0248Z" fill="#414449"/>
</g>
</g>
</g>
</g>
</g>
</g>
</g>
<defs>
<filter id="filter0_d_0_1" x="-129" y="-619" width="540" height="836" filterUnits="userSpaceOnUse" color-interpolation-filters="sRGB">
<feFlood flood-opacity="0" result="BackgroundImageFix"/>
<feColorMatrix in="SourceAlpha" type="matrix" values="0 0 0 0 0 0 0 0 0 0 0 0 0 0 0 0 0 0 127 0" result="hardAlpha"/>
<feOffset dx="1" dy="1"/>
<feGaussianBlur stdDeviation="57"/>
<feComposite in2="hardAlpha" operator="out"/>
<feColorMatrix type="matrix" values="0 0 0 0 0 0 0 0 0 0 0 0 0 0 0 0 0 0 0.05 0"/>
<feBlend mode="normal" in2="BackgroundImageFix" result="effect1_dropShadow_0_1"/>
<feBlend mode="normal" in="SourceGraphic" in2="effect1_dropShadow_0_1" result="shape"/>
</filter>
<clipPath id="clip0_0_1">
<rect width="1440" height="1024" fill="white" transform="translate(-608 -802)"/>
</clipPath>
<clipPath id="clip1_0_1">
<path d="M-329 -590C-329 -598.837 -321.837 -606 -313 -606H832V210H-313C-321.837 210 -329 202.837 -329 194V-590Z" fill="white"/>
</clipPath>
<clipPath id="clip2_0_1">
<rect x="-16" y="-506" width="312" height="608" rx="16" fill="white"/>
</clipPath>
</defs>
</svg>
