<svg width="16" height="16" viewBox="0 0 16 16" fill="none" xmlns="http://www.w3.org/2000/svg">
<g clip-path="url(#clip0_1_31570)">
<path d="M8.00781 16C3.59661 16 0.0078125 12.4112 0.0078125 8C0.0078125 3.5888 3.59661 0 8.00781 0C12.419 0 16.0078 3.5888 16.0078 8C16.0078 12.4112 12.419 16 8.00781 16ZM8.00781 0.533333C3.89075 0.533333 0.541146 3.88293 0.541146 8C0.541146 12.1171 3.89075 15.4667 8.00781 15.4667C12.1249 15.4667 15.4745 12.1171 15.4745 8C15.4745 3.88293 12.1249 0.533333 8.00781 0.533333ZM8.00781 14.6667C6.50115 14.6667 5.07741 14.1725 3.89075 13.2379C3.83075 13.1907 3.79395 13.1203 3.78968 13.044C3.78515 12.968 3.81341 12.8936 3.86728 12.8397L12.8475 3.85947C12.9014 3.8056 12.975 3.7776 13.0518 3.78187C13.1278 3.7864 13.1985 3.8232 13.2457 3.88293C14.1803 5.0696 14.6745 6.49333 14.6745 8C14.6745 11.676 11.6838 14.6667 8.00781 14.6667ZM4.46141 12.9995C5.50248 13.7424 6.72221 14.1333 8.00755 14.1333C11.3894 14.1333 14.1409 11.3819 14.1409 8C14.1409 6.71467 13.7499 5.49493 13.007 4.45387L4.46141 12.9995ZM3.09821 12.3667C3.09421 12.3667 3.09048 12.3667 3.08648 12.3664C3.01181 12.3629 2.94195 12.3285 2.89368 12.2712C1.89261 11.0744 1.34115 9.5576 1.34115 8C1.34115 4.324 4.33181 1.33333 8.00781 1.33333C9.56515 1.33333 11.0819 1.8848 12.279 2.88587C12.3363 2.93387 12.371 3.00373 12.3742 3.07867C12.3774 3.15333 12.3494 3.22613 12.2963 3.27893L3.28675 12.2885C3.23661 12.3387 3.16888 12.3667 3.09821 12.3667ZM8.00781 1.86667C4.62595 1.86667 1.87448 4.61813 1.87448 8C1.87448 9.3352 2.31528 10.6381 3.12088 11.7003L11.7083 3.1128C10.6457 2.30747 9.34275 1.86667 8.00781 1.86667Z" fill="#414449"/>
</g>
<defs>
<clipPath id="clip0_1_31570">
<rect width="16" height="16" fill="white"/>
</clipPath>
</defs>
</svg>
