<svg width="20" height="20" viewBox="0 0 20 20" fill="none" xmlns="http://www.w3.org/2000/svg">
<rect width="20" height="20" fill="#1E1E1E"/>
<g id="Section 2">
<path d="M-3508 -1675C-3508 -1676.1 -3507.1 -1677 -3506 -1677H7159C7160.1 -1677 7161 -1676.1 7161 -1675V11542C7161 11543.1 7160.1 11544 7159 11544H-3506C-3507.1 11544 -3508 11543.1 -3508 11542V-1675Z" fill="white" fill-opacity="0.19"/>
<path d="M-3506 -1676H7159V-1678H-3506V-1676ZM7160 -1675V11542H7162V-1675H7160ZM7159 11543H-3506V11545H7159V11543ZM-3507 11542V-1675H-3509V11542H-3507ZM-3506 11543C-3506.55 11543 -3507 11542.6 -3507 11542H-3509C-3509 11543.7 -3507.66 11545 -3506 11545V11543ZM7160 11542C7160 11542.6 7159.55 11543 7159 11543V11545C7160.66 11545 7162 11543.7 7162 11542H7160ZM7159 -1676C7159.55 -1676 7160 -1675.55 7160 -1675H7162C7162 -1676.66 7160.66 -1678 7159 -1678V-1676ZM-3506 -1678C-3507.66 -1678 -3509 -1676.66 -3509 -1675H-3507C-3507 -1675.55 -3506.55 -1676 -3506 -1676V-1678Z" fill="black" fill-opacity="0.1"/>
<g id="Dashboard" clip-path="url(#clip0_0_1)">
<rect width="1440" height="1024" transform="translate(-913 -40)" fill="#F8F9FA"/>
<g id="Group 427319088">
<g id="Group 427319090">
<g id="Frame 33622">
<g id="Frame 33623">
<g id="Header">
<mask id="path-3-inside-1_0_1" fill="white">
<path d="M-654 -40H527V60H-654V-40Z"/>
</mask>
<path d="M-654 -40H527V60H-654V-40Z" fill="#F8F9FA"/>
<path d="M527 59H-654V61H527V59Z" fill="#E5E7E8" mask="url(#path-3-inside-1_0_1)"/>
<g id="Frame 33620">
<g id="Menus">
<g id="Search">
<rect x="-13.5" y="-10.5" width="319" height="41" rx="9.5" fill="#F5F6F6"/>
<rect x="-13.5" y="-10.5" width="319" height="41" rx="9.5" stroke="#CDD1D4"/>
<g id="MagnifyingGlass">
<path id="Vector" d="M17.9421 17.0579L14.0304 13.1469C15.1642 11.7858 15.7295 10.0399 15.6089 8.2725C15.4882 6.50512 14.6908 4.85229 13.3825 3.65785C12.0743 2.46341 10.3559 1.81932 8.58486 1.85957C6.81382 1.89982 5.12647 2.62131 3.87383 3.87395C2.62118 5.12659 1.89969 6.81394 1.85944 8.58498C1.8192 10.356 2.46328 12.0744 3.65772 13.3827C4.85217 14.6909 6.50499 15.4883 8.27238 15.609C10.0398 15.7297 11.7856 15.1643 13.1468 14.0305L17.0577 17.9422C17.1158 18.0003 17.1848 18.0464 17.2606 18.0778C17.3365 18.1092 17.4178 18.1254 17.4999 18.1254C17.5821 18.1254 17.6634 18.1092 17.7392 18.0778C17.8151 18.0464 17.8841 18.0003 17.9421 17.9422C18.0002 17.8842 18.0463 17.8152 18.0777 17.7394C18.1091 17.6635 18.1253 17.5822 18.1253 17.5001C18.1253 17.4179 18.1091 17.3366 18.0777 17.2607C18.0463 17.1849 18.0002 17.1159 17.9421 17.0579ZM3.12493 8.75006C3.12493 7.63754 3.45483 6.55 4.07292 5.62497C4.691 4.69995 5.56951 3.97898 6.59734 3.55323C7.62517 3.12749 8.75617 3.0161 9.84732 3.23314C10.9385 3.45018 11.9407 3.98591 12.7274 4.77258C13.5141 5.55925 14.0498 6.56153 14.2669 7.65267C14.4839 8.74382 14.3725 9.87482 13.9468 10.9027C13.521 11.9305 12.8 12.809 11.875 13.4271C10.95 14.0452 9.86245 14.3751 8.74993 14.3751C7.2586 14.3734 5.82882 13.7802 4.77429 12.7257C3.71975 11.6712 3.12659 10.2414 3.12493 8.75006Z" fill="#6C757D"/>
</g>
</g>
</g>
</g>
</g>
</g>
</g>
</g>
</g>
</g>
</g>
<defs>
<clipPath id="clip0_0_1">
<rect width="1440" height="1024" fill="white" transform="translate(-913 -40)"/>
</clipPath>
</defs>
</svg>
