<svg width="17" height="17" viewBox="0 0 17 17" fill="none" xmlns="http://www.w3.org/2000/svg">
<path d="M2.94427 11.3222C2.81627 11.3222 2.68852 11.2735 2.59077 11.1757C2.39552 10.9805 2.39552 10.664 2.59077 10.4687L10.4043 2.65523C10.5993 2.45998 10.916 2.45998 11.1113 2.65523C11.3065 2.85048 11.3065 3.16698 11.1113 3.36223L3.29777 11.1757C3.20027 11.2732 3.07227 11.3222 2.94427 11.3222Z" fill="#414449"/>
<path d="M2.17237 14.9226C2.13762 14.9226 2.10237 14.9189 2.06712 14.9114C1.79712 14.8534 1.62512 14.5876 1.68312 14.3176L2.45562 10.7169C2.51362 10.4469 2.78062 10.2754 3.04937 10.3329C3.31937 10.3909 3.49137 10.6566 3.43337 10.9266L2.66087 14.5274C2.61062 14.7621 2.40312 14.9226 2.17237 14.9226Z" fill="#414449"/>
<path d="M5.7724 14.1506C5.6444 14.1506 5.51665 14.1018 5.4189 14.0041C5.22365 13.8088 5.22365 13.4923 5.4189 13.2971L13.2324 5.48384C13.4274 5.28859 13.7441 5.28859 13.9394 5.48384C14.1346 5.67909 14.1346 5.99559 13.9394 6.19084L6.12615 14.0041C6.0284 14.1018 5.9004 14.1506 5.7724 14.1506Z" fill="#414449"/>
<path d="M2.17106 14.9229C1.94031 14.9229 1.73306 14.7624 1.68256 14.5277C1.62481 14.2577 1.79656 13.9919 2.06656 13.9339L5.66731 13.1614C5.93756 13.1042 6.20331 13.2757 6.26106 13.5454C6.31881 13.8154 6.14706 14.0812 5.87706 14.1392L2.27631 14.9117C2.24106 14.9194 2.20581 14.9229 2.17106 14.9229Z" fill="#414449"/>
<path d="M12.1719 7.75104C12.0439 7.75104 11.9159 7.70229 11.8184 7.60454L8.99019 4.77629C8.79494 4.58104 8.79494 4.26454 8.99019 4.06929C9.18519 3.87404 9.50219 3.87404 9.69719 4.06929L12.5254 6.89754C12.7207 7.09279 12.7207 7.40929 12.5254 7.60454C12.4279 7.70229 12.2999 7.75104 12.1719 7.75104Z" fill="#414449"/>
<path d="M13.586 6.33716C13.458 6.33716 13.33 6.28841 13.2323 6.19066C13.037 5.99541 13.037 5.67891 13.2323 5.48341C13.5105 5.20516 13.6638 4.82841 13.6638 4.42291C13.6638 4.01741 13.5105 3.64066 13.2323 3.36241C12.9538 3.08391 12.577 2.93066 12.1715 2.93066C11.766 2.93066 11.3893 3.08391 11.111 3.36241C10.916 3.55766 10.5995 3.55791 10.4038 3.36241C10.2085 3.16716 10.2085 2.85066 10.4038 2.65516C10.8708 2.18791 11.4985 1.93066 12.1715 1.93066C12.8443 1.93066 13.4723 2.18791 13.9393 2.65516C14.4065 3.12216 14.6638 3.74991 14.6638 4.42291C14.6638 5.09591 14.4065 5.72366 13.9393 6.19066C13.842 6.28816 13.714 6.33716 13.586 6.33716Z" fill="#414449"/>
</svg>
