<svg width="19" height="19" viewBox="0 0 19 19" fill="none" xmlns="http://www.w3.org/2000/svg">
<path d="M6.69297 6.19766L8.41797 4.47266V11.6727C8.41797 12.1227 8.71797 12.4227 9.16797 12.4227C9.61797 12.4227 9.91797 12.1227 9.91797 11.6727V4.47266L11.643 6.19766C11.943 6.49766 12.393 6.49766 12.693 6.19766C12.993 5.89766 12.993 5.44766 12.693 5.14766L9.69297 2.14766C9.61797 2.07266 9.54297 1.99766 9.46797 1.99766C9.31797 1.92266 9.09297 1.92266 8.86797 1.99766C8.79297 1.99766 8.71797 2.07266 8.64297 2.14766L5.64297 5.14766C5.34297 5.44766 5.34297 5.89766 5.64297 6.19766C5.94297 6.49766 6.39297 6.49766 6.69297 6.19766ZM15.918 10.9227C15.468 10.9227 15.168 11.2227 15.168 11.6727V14.6727C15.168 15.1227 14.868 15.4227 14.418 15.4227H3.91797C3.46797 15.4227 3.16797 15.1227 3.16797 14.6727V11.6727C3.16797 11.2227 2.86797 10.9227 2.41797 10.9227C1.96797 10.9227 1.66797 11.2227 1.66797 11.6727V14.6727C1.66797 15.9477 2.64297 16.9227 3.91797 16.9227H14.418C15.693 16.9227 16.668 15.9477 16.668 14.6727V11.6727C16.668 11.2227 16.368 10.9227 15.918 10.9227Z" fill="#414449"/>
</svg>
