<svg width="17" height="17" viewBox="0 0 17 17" fill="none" xmlns="http://www.w3.org/2000/svg">
<g clip-path="url(#clip0_1_34159)">
<path d="M8.16797 0.422852C3.746 0.422852 0.167969 4.00126 0.167969 8.42285C0.167969 12.8448 3.74638 16.4229 8.16797 16.4229C12.5899 16.4229 16.168 12.8444 16.168 8.42285C16.168 4.00088 12.5896 0.422852 8.16797 0.422852ZM8.16797 15.3562C4.34494 15.3562 1.23462 12.2459 1.23462 8.42285C1.23462 4.59979 4.34494 1.48951 8.16797 1.48951C11.991 1.48951 15.1013 4.59982 15.1013 8.42285C15.1013 12.2459 11.991 15.3562 8.16797 15.3562Z" fill="#414449"/>
<path d="M12.4027 5.48336C12.1944 5.27508 11.8567 5.27508 11.6485 5.48336L6.90044 10.2314L4.68732 8.0183C4.47904 7.81002 4.14132 7.81002 3.93307 8.0183C3.72479 8.22658 3.72479 8.56427 3.93307 8.77255L6.52329 11.3628C6.73154 11.571 7.06935 11.571 7.27754 11.3628L12.4027 6.23758C12.611 6.0293 12.611 5.69164 12.4027 5.48336Z" fill="#414449"/>
</g>
<defs>
<clipPath id="clip0_1_34159">
<rect width="16" height="16" fill="white" transform="translate(0.167969 0.422852)"/>
</clipPath>
</defs>
</svg>
