<svg width="19" height="19" viewBox="0 0 19 19" fill="none" xmlns="http://www.w3.org/2000/svg">
<path d="M13.1055 17.2979C12.3267 17.2979 11.5654 17.0669 10.9179 16.6343C10.2704 16.2016 9.76571 15.5867 9.46769 14.8672C9.16967 14.1477 9.0917 13.356 9.24363 12.5922C9.39556 11.8284 9.77057 11.1268 10.3212 10.5761C10.8719 10.0255 11.5735 9.65044 12.3373 9.49851C13.1011 9.34658 13.8928 9.42456 14.6123 9.72258C15.3318 10.0206 15.9467 10.5253 16.3794 11.1728C16.812 11.8203 17.043 12.5816 17.043 13.3604C17.0418 14.4043 16.6266 15.4051 15.8884 16.1433C15.1502 16.8814 14.1494 17.2967 13.1055 17.2979ZM13.1055 10.5479C12.5492 10.5479 12.0054 10.7128 11.5429 11.0218C11.0804 11.3309 10.7199 11.7701 10.5071 12.2841C10.2942 12.798 10.2385 13.3635 10.347 13.909C10.4555 14.4546 10.7234 14.9558 11.1167 15.3491C11.5101 15.7424 12.0112 16.0103 12.5568 16.1188C13.1024 16.2273 13.6679 16.1716 14.1818 15.9588C14.6957 15.7459 15.1349 15.3854 15.444 14.9229C15.753 14.4604 15.918 13.9166 15.918 13.3604C15.9171 12.6147 15.6205 11.8999 15.0932 11.3726C14.566 10.8453 13.8511 10.5487 13.1055 10.5479Z" fill="#414449"/>
<path d="M7.48047 8.29785C7.14671 8.29785 6.82045 8.19888 6.54294 8.01346C6.26544 7.82803 6.04915 7.56448 5.92142 7.25613C5.7937 6.94778 5.76028 6.60848 5.82539 6.28114C5.89051 5.95379 6.05123 5.65311 6.28723 5.41711C6.52323 5.18111 6.82391 5.02039 7.15125 4.95528C7.4786 4.89016 7.8179 4.92358 8.12625 5.05131C8.4346 5.17903 8.69815 5.39532 8.88357 5.67283C9.069 5.95034 9.16797 6.2766 9.16797 6.61035C9.16797 6.75954 9.10871 6.90261 9.00322 7.0081C8.89773 7.11359 8.75465 7.17285 8.60547 7.17285C8.45629 7.17285 8.31321 7.11359 8.20772 7.0081C8.10223 6.90261 8.04297 6.75954 8.04297 6.61035C8.04297 6.4991 8.00998 6.39035 7.94817 6.29784C7.88636 6.20534 7.79851 6.13324 7.69573 6.09067C7.59295 6.0481 7.47985 6.03696 7.37073 6.05866C7.26162 6.08036 7.16139 6.13394 7.08272 6.2126C7.00406 6.29127 6.95048 6.3915 6.92878 6.50061C6.90707 6.60973 6.91821 6.72283 6.96079 6.82561C7.00336 6.9284 7.07546 7.01625 7.16796 7.07805C7.26046 7.13986 7.36922 7.17285 7.48047 7.17285C7.62965 7.17285 7.77273 7.23212 7.87822 7.3376C7.98371 7.44309 8.04297 7.58617 8.04297 7.73535C8.04297 7.88454 7.98371 8.02761 7.87822 8.1331C7.77273 8.23859 7.62965 8.29785 7.48047 8.29785Z" fill="#414449"/>
<path d="M7.48047 10.5479C7.03292 10.5479 6.60369 10.3701 6.28723 10.0536C5.97076 9.73713 5.79297 9.3079 5.79297 8.86035C5.79297 8.71117 5.85223 8.56809 5.95772 8.4626C6.06321 8.35711 6.20628 8.29785 6.35547 8.29785C6.50465 8.29785 6.64773 8.35711 6.75322 8.4626C6.85871 8.56809 6.91797 8.71117 6.91797 8.86035C6.91797 8.9716 6.95096 9.08036 7.01277 9.17286C7.07458 9.26536 7.16243 9.33746 7.26521 9.38003C7.36799 9.42261 7.48109 9.43375 7.59021 9.41204C7.69932 9.39034 7.79955 9.33677 7.87822 9.2581C7.95688 9.17943 8.01046 9.0792 8.03216 8.97009C8.05386 8.86098 8.04273 8.74788 8.00015 8.64509C7.95758 8.54231 7.88548 8.45446 7.79298 8.39265C7.70047 8.33084 7.59172 8.29785 7.48047 8.29785C7.33128 8.29785 7.18821 8.23859 7.08272 8.1331C6.97723 8.02761 6.91797 7.88454 6.91797 7.73535C6.91797 7.58617 6.97723 7.44309 7.08272 7.3376C7.18821 7.23211 7.33128 7.17285 7.48047 7.17285C7.92802 7.17285 8.35724 7.35064 8.67371 7.66711C8.99018 7.98358 9.16797 8.4128 9.16797 8.86035C9.16797 9.3079 8.99018 9.73713 8.67371 10.0536C8.35724 10.3701 7.92802 10.5479 7.48047 10.5479Z" fill="#414449"/>
<path d="M7.48047 6.04766C7.33128 6.04766 7.18821 5.9884 7.08272 5.88291C6.97723 5.77742 6.91797 5.63435 6.91797 5.48516V4.73535C6.91797 4.58617 6.97723 4.44309 7.08272 4.3376C7.18821 4.23211 7.33128 4.17285 7.48047 4.17285C7.62965 4.17285 7.77273 4.23211 7.87822 4.3376C7.98371 4.44309 8.04297 4.58617 8.04297 4.73535V5.48516C8.04297 5.63435 7.98371 5.77742 7.87822 5.88291C7.77273 5.9884 7.62965 6.04766 7.48047 6.04766Z" fill="#414449"/>
<path d="M7.48047 11.2977C7.33128 11.2977 7.18821 11.2384 7.08272 11.1329C6.97723 11.0274 6.91797 10.8843 6.91797 10.7352V9.98535C6.91797 9.83617 6.97723 9.69309 7.08272 9.5876C7.18821 9.48211 7.33128 9.42285 7.48047 9.42285C7.62965 9.42285 7.77273 9.48211 7.87822 9.5876C7.98371 9.69309 8.04297 9.83617 8.04297 9.98535V10.7352C8.04297 10.8843 7.98371 11.0274 7.87822 11.1329C7.77273 11.2384 7.62965 11.2977 7.48047 11.2977Z" fill="#414449"/>
<path d="M7.48047 8.29785C7.14671 8.29785 6.82045 8.19888 6.54294 8.01346C6.26544 7.82803 6.04915 7.56448 5.92142 7.25613C5.7937 6.94778 5.76028 6.60848 5.82539 6.28114C5.89051 5.95379 6.05123 5.65311 6.28723 5.41711C6.52323 5.18111 6.82391 5.02039 7.15125 4.95528C7.4786 4.89016 7.8179 4.92358 8.12625 5.05131C8.4346 5.17903 8.69815 5.39532 8.88357 5.67283C9.069 5.95034 9.16797 6.2766 9.16797 6.61035C9.16797 6.75954 9.10871 6.90261 9.00322 7.0081C8.89773 7.11359 8.75465 7.17285 8.60547 7.17285C8.45629 7.17285 8.31321 7.11359 8.20772 7.0081C8.10223 6.90261 8.04297 6.75954 8.04297 6.61035C8.04297 6.4991 8.00998 6.39035 7.94817 6.29784C7.88636 6.20534 7.79851 6.13324 7.69573 6.09067C7.59295 6.0481 7.47985 6.03696 7.37073 6.05866C7.26162 6.08036 7.16139 6.13394 7.08272 6.2126C7.00406 6.29127 6.95048 6.3915 6.92878 6.50061C6.90707 6.60973 6.91821 6.72283 6.96079 6.82561C7.00336 6.9284 7.07546 7.01625 7.16796 7.07805C7.26046 7.13986 7.36922 7.17285 7.48047 7.17285C7.62965 7.17285 7.77273 7.23212 7.87822 7.3376C7.98371 7.44309 8.04297 7.58617 8.04297 7.73535C8.04297 7.88454 7.98371 8.02761 7.87822 8.1331C7.77273 8.23859 7.62965 8.29785 7.48047 8.29785Z" fill="#414449"/>
<path d="M7.48047 10.5479C7.03292 10.5479 6.60369 10.3701 6.28723 10.0536C5.97076 9.73713 5.79297 9.3079 5.79297 8.86035C5.79297 8.71117 5.85223 8.56809 5.95772 8.4626C6.06321 8.35711 6.20628 8.29785 6.35547 8.29785C6.50465 8.29785 6.64773 8.35711 6.75322 8.4626C6.85871 8.56809 6.91797 8.71117 6.91797 8.86035C6.91797 8.9716 6.95096 9.08036 7.01277 9.17286C7.07458 9.26536 7.16243 9.33746 7.26521 9.38003C7.36799 9.42261 7.48109 9.43375 7.59021 9.41204C7.69932 9.39034 7.79955 9.33677 7.87822 9.2581C7.95688 9.17943 8.01046 9.0792 8.03216 8.97009C8.05386 8.86098 8.04273 8.74788 8.00015 8.64509C7.95758 8.54231 7.88548 8.45446 7.79298 8.39265C7.70047 8.33084 7.59172 8.29785 7.48047 8.29785C7.33128 8.29785 7.18821 8.23859 7.08272 8.1331C6.97723 8.02761 6.91797 7.88454 6.91797 7.73535C6.91797 7.58617 6.97723 7.44309 7.08272 7.3376C7.18821 7.23211 7.33128 7.17285 7.48047 7.17285C7.92802 7.17285 8.35724 7.35064 8.67371 7.66711C8.99018 7.98358 9.16797 8.4128 9.16797 8.86035C9.16797 9.3079 8.99018 9.73713 8.67371 10.0536C8.35724 10.3701 7.92802 10.5479 7.48047 10.5479Z" fill="#414449"/>
<path d="M7.48047 6.04766C7.33128 6.04766 7.18821 5.9884 7.08272 5.88291C6.97723 5.77742 6.91797 5.63435 6.91797 5.48516V4.73535C6.91797 4.58617 6.97723 4.44309 7.08272 4.3376C7.18821 4.23211 7.33128 4.17285 7.48047 4.17285C7.62965 4.17285 7.77273 4.23211 7.87822 4.3376C7.98371 4.44309 8.04297 4.58617 8.04297 4.73535V5.48516C8.04297 5.63435 7.98371 5.77742 7.87822 5.88291C7.77273 5.9884 7.62965 6.04766 7.48047 6.04766Z" fill="#414449"/>
<path d="M7.48047 11.2977C7.33128 11.2977 7.18821 11.2384 7.08272 11.1329C6.97723 11.0274 6.91797 10.8843 6.91797 10.7352V9.98535C6.91797 9.83617 6.97723 9.69309 7.08272 9.5876C7.18821 9.48211 7.33128 9.42285 7.48047 9.42285C7.62965 9.42285 7.77273 9.48211 7.87822 9.5876C7.98371 9.69309 8.04297 9.83617 8.04297 9.98535V10.7352C8.04297 10.8843 7.98371 11.0274 7.87822 11.1329C7.77273 11.2384 7.62965 11.2977 7.48047 11.2977Z" fill="#414449"/>
<path d="M7.48047 13.9229C6.2567 13.9229 5.06041 13.56 4.04288 12.8801C3.02535 12.2002 2.23228 11.2338 1.76397 10.1032C1.29565 8.97259 1.17312 7.72849 1.41186 6.52823C1.65061 5.32798 2.23991 4.22547 3.10525 3.36013C3.97059 2.49479 5.07309 1.90549 6.27335 1.66675C7.47361 1.428 8.71771 1.55053 9.84833 2.01885C10.9789 2.48717 11.9453 3.28023 12.6252 4.29776C13.3051 5.31529 13.668 6.51158 13.668 7.73535C13.6706 8.60465 13.4867 9.46438 13.1285 10.2565C13.099 10.3251 13.0561 10.3872 13.0023 10.4391C12.9485 10.4909 12.8849 10.5316 12.8152 10.5586C12.7455 10.5856 12.6711 10.5984 12.5964 10.5964C12.5217 10.5943 12.4482 10.5774 12.3801 10.5466C12.312 10.5158 12.2507 10.4718 12.1998 10.417C12.1489 10.3623 12.1095 10.298 12.0838 10.2278C12.058 10.1576 12.0465 10.083 12.0499 10.0084C12.0534 9.93373 12.0716 9.8605 12.1037 9.79298C12.3955 9.14638 12.5453 8.44474 12.543 7.73535C12.543 6.73409 12.2461 5.7553 11.6898 4.92278C11.1335 4.09026 10.3429 3.44138 9.41781 3.05821C8.49276 2.67505 7.47486 2.57479 6.49283 2.77013C5.5108 2.96547 4.60875 3.44762 3.90074 4.15563C3.19274 4.86363 2.71058 5.76568 2.51525 6.74771C2.31991 7.72974 2.42016 8.74764 2.80333 9.67269C3.1865 10.5977 3.83537 11.3884 4.6679 11.9447C5.50042 12.5009 6.4792 12.7979 7.48047 12.7979C8.19008 12.8 8.89191 12.65 9.53866 12.358C9.67472 12.2967 9.82956 12.2919 9.96912 12.3448C10.1087 12.3976 10.2215 12.5037 10.2828 12.6398C10.3442 12.7758 10.3489 12.9307 10.2961 13.0703C10.2432 13.2098 10.1371 13.3227 10.001 13.384C9.20891 13.7414 8.34948 13.9251 7.48047 13.9229Z" fill="#414449"/>
<path d="M12.7302 14.7431C12.5811 14.7432 12.4381 14.6841 12.3325 14.5789L11.5827 13.8285C11.4802 13.7224 11.4235 13.5803 11.4248 13.4328C11.4261 13.2853 11.4853 13.1442 11.5896 13.04C11.6938 12.9357 11.8349 12.8765 11.9824 12.8752C12.1299 12.8739 12.272 12.9306 12.3781 13.0331L12.7302 13.3852L13.8327 12.2827C13.885 12.2305 13.9471 12.1891 14.0154 12.1609C14.0837 12.1326 14.1569 12.1181 14.2308 12.1182C14.3047 12.1182 14.3779 12.1328 14.4461 12.1612C14.5144 12.1895 14.5764 12.231 14.6286 12.2833C14.6809 12.3356 14.7223 12.3977 14.7505 12.466C14.7788 12.5343 14.7933 12.6075 14.7932 12.6814C14.7932 12.7553 14.7785 12.8285 14.7502 12.8967C14.7219 12.965 14.6804 13.027 14.6281 13.0792L13.1279 14.5789C13.0223 14.6841 12.8793 14.7432 12.7302 14.7431Z" fill="#414449"/>
</svg>
