<svg width="19" height="19" viewBox="0 0 19 19" fill="none" xmlns="http://www.w3.org/2000/svg">
<path fill-rule="evenodd" clip-rule="evenodd" d="M12.3389 11.1178V2.45459C12.3389 2.14409 12.5909 1.89209 12.9014 1.89209H16.2929C16.5419 1.89209 16.7796 1.99109 16.9559 2.16659C17.1314 2.34209 17.2304 2.58059 17.2304 2.82959V10.7428C17.2304 10.9918 17.1314 11.2296 16.9559 11.4058C16.7796 11.5813 16.5419 11.6803 16.2929 11.6803H12.9014C12.5909 11.6803 12.3389 11.4283 12.3389 11.1178ZM16.1054 10.5553V3.01709C15.4739 3.01709 13.4639 3.01709 13.4639 3.01709V10.5553H16.1054Z" fill="#414449"/>
<path fill-rule="evenodd" clip-rule="evenodd" d="M13.464 2.45459V11.1178C13.464 11.2378 13.4257 11.3541 13.3545 11.4508L9.93674 16.1113C9.54749 16.6408 8.93025 16.9536 8.27325 16.9536H8.16074C7.55099 16.9536 6.97274 16.6843 6.58124 16.2171C6.18899 15.7506 6.02399 15.1341 6.12975 14.5341L6.59325 11.9001C6.60225 11.8461 6.58725 11.7898 6.552 11.7471C6.516 11.7051 6.4635 11.6803 6.408 11.6803H3.17474C2.53349 11.6803 1.92899 11.3833 1.53749 10.8763C1.14524 10.3693 1.01099 9.70934 1.17224 9.08909L2.64674 3.43859C2.88449 2.52734 3.70725 1.89209 4.6485 1.89209H12.9015C13.212 1.89209 13.464 2.14409 13.464 2.45459ZM12.339 3.01709H4.6485C4.21874 3.01709 3.84374 3.30734 3.73499 3.72284L2.26124 9.37259C2.18699 9.65609 2.24849 9.95684 2.42774 10.1886C2.60624 10.4196 2.88224 10.5553 3.17474 10.5553H6.408C6.79649 10.5553 7.164 10.7271 7.41375 11.0241C7.66274 11.3211 7.76849 11.7133 7.70099 12.0951L7.23749 14.7291C7.18949 15.0013 7.26449 15.2818 7.443 15.4941C7.62074 15.7063 7.88399 15.8286 8.16074 15.8286H8.27325C8.57175 15.8286 8.85299 15.6868 9.02924 15.4453L12.339 10.9333V3.01709Z" fill="#414449"/>
</svg>
