<svg width="26" height="26" viewBox="0 0 26 26" fill="none" xmlns="http://www.w3.org/2000/svg">
<rect x="14.4253" y="0.828613" width="1.45572" height="4.85241" rx="0.24262" fill="#FE4711"/>
<path d="M17.0403 10.0837C17.135 10.1785 17.2895 10.1791 17.3761 10.0768C17.6974 9.69684 17.917 9.23969 18.0118 8.74843C18.122 8.17752 18.0588 7.5867 17.8302 7.05207C17.6016 6.51743 17.2182 6.06349 16.7293 5.74871C16.2405 5.43393 15.6685 5.27274 15.0872 5.2859C14.5059 5.29906 13.9419 5.48598 13.4678 5.82256C12.9937 6.15914 12.6312 6.62997 12.427 7.1744C12.2229 7.71883 12.1864 8.31191 12.3224 8.87724C12.4393 9.36371 12.6794 9.81046 13.0176 10.1755C13.1087 10.2738 13.263 10.2662 13.3533 10.1672L14.0078 9.45063C14.0982 9.35169 14.0893 9.19925 14.0067 9.09373C13.8788 8.93026 13.7867 8.74055 13.7378 8.53692C13.6698 8.25426 13.688 7.95772 13.7901 7.6855C13.8922 7.41329 14.0734 7.17787 14.3105 7.00958C14.5475 6.84129 14.8295 6.74783 15.1202 6.74125C15.4108 6.73467 15.6968 6.81527 15.9412 6.97266C16.1857 7.13004 16.3774 7.35702 16.4917 7.62433C16.606 7.89165 16.6376 8.18706 16.5825 8.47251C16.5428 8.67815 16.4594 8.87183 16.339 9.04092C16.2613 9.15008 16.2593 9.30276 16.3541 9.39751L17.0403 10.0837Z" fill="#FE4711"/>
<path fill-rule="evenodd" clip-rule="evenodd" d="M3.67372 7.75342C3.40573 7.75342 3.18848 7.97067 3.18848 8.23866V18.3784H10.8417V8.23866C10.8417 7.97067 10.6244 7.75342 10.3564 7.75342H3.67372ZM5.45182 10.1769C5.38076 10.248 5.38076 10.3624 5.38076 10.5911V11.0764C5.38076 11.3051 5.38076 11.4195 5.45182 11.4905C5.52288 11.5616 5.63725 11.5616 5.866 11.5616H7.80696C8.0357 11.5616 8.15008 11.5616 8.22114 11.4905C8.2922 11.4195 8.2922 11.3051 8.2922 11.0764V10.5911C8.2922 10.3624 8.2922 10.248 8.22114 10.1769C8.15008 10.1059 8.0357 10.1059 7.80696 10.1059H5.866C5.63725 10.1059 5.52288 10.1059 5.45182 10.1769Z" fill="#FE4711"/>
<path fill-rule="evenodd" clip-rule="evenodd" d="M13.268 11.9946C13 11.9946 12.7827 12.2119 12.7827 12.4799V18.3783H22.8106V12.4799C22.8106 12.2119 22.5934 11.9946 22.3254 11.9946H13.268ZM16.341 14.4586C16.207 14.4586 16.0983 14.5672 16.0983 14.7012V15.6717C16.0983 15.8056 16.207 15.9143 16.341 15.9143H19.2524C19.3864 15.9143 19.495 15.8056 19.495 15.6717V14.7012C19.495 14.5672 19.3864 14.4586 19.2524 14.4586H16.341Z" fill="#FE4711"/>
<path fill-rule="evenodd" clip-rule="evenodd" d="M2.68841 20.3193C1.34846 20.3193 0.262207 21.4056 0.262207 22.7455C0.262207 24.0855 1.34846 25.1717 2.68841 25.1717H23.3111C24.6511 25.1717 25.7373 24.0855 25.7373 22.7455C25.7373 21.4056 24.6511 20.3193 23.3111 20.3193H2.68841ZM2.32442 22.0178C1.92244 22.0178 1.59656 22.3437 1.59656 22.7456C1.59656 23.1476 1.92244 23.4735 2.32442 23.4735C2.72641 23.4735 3.05228 23.1476 3.05228 22.7456C3.05228 22.3437 2.72641 22.0178 2.32442 22.0178ZM6.93421 22.7456C6.93421 22.3436 7.26009 22.0178 7.66208 22.0178C8.06406 22.0178 8.38994 22.3436 8.38994 22.7456C8.38994 23.1476 8.06406 23.4735 7.66208 23.4735C7.26009 23.4735 6.93421 23.1476 6.93421 22.7456ZM12.9997 22.0178C12.5977 22.0178 12.2718 22.3436 12.2718 22.7456C12.2718 23.1476 12.5977 23.4735 12.9997 23.4735C13.4017 23.4735 13.7276 23.1476 13.7276 22.7456C13.7276 22.3436 13.4017 22.0178 12.9997 22.0178ZM17.6095 22.7456C17.6095 22.3436 17.9354 22.0178 18.3374 22.0178C18.7394 22.0178 19.0652 22.3436 19.0652 22.7456C19.0652 23.1476 18.7394 23.4735 18.3374 23.4735C17.9354 23.4735 17.6095 23.1476 17.6095 22.7456ZM23.675 22.0178C23.273 22.0178 22.9471 22.3436 22.9471 22.7456C22.9471 23.1476 23.273 23.4735 23.675 23.4735C24.077 23.4735 24.4029 23.1476 24.4029 22.7456C24.4029 22.3436 24.077 22.0178 23.675 22.0178Z" fill="#FE4711"/>
</svg>
