<svg width="56" height="57" viewBox="0 0 56 57" fill="none" xmlns="http://www.w3.org/2000/svg">
<rect y="0.5" width="56" height="56" rx="12" fill="#E8F7FE"/>
<path d="M34.0077 18.4502H33.6484V18.0002C33.6484 17.6274 33.3462 17.3252 32.9734 17.3252C32.6007 17.3252 32.2984 17.6274 32.2984 18.0002V18.4502H23.7019V18.0002C23.7019 17.6274 23.3997 17.3252 23.0269 17.3252C22.6542 17.3252 22.3519 17.6274 22.3519 18.0002V18.4502H21.9927C19.4532 18.4502 17.3877 20.5157 17.3877 23.0552V25.3127V35.0702C17.3877 37.6097 19.4532 39.6752 21.9927 39.6752H34.0077C36.5472 39.6752 38.6134 37.6097 38.6134 35.0702V25.3127V23.0552C38.6127 20.5157 36.5472 18.4502 34.0077 18.4502ZM28.6752 35.6544C28.6752 36.0272 28.3729 36.3294 28.0002 36.3294C27.6274 36.3294 27.3252 36.0272 27.3252 35.6544V35.1174C27.3252 34.7447 27.6274 34.4424 28.0002 34.4424C28.3729 34.4424 28.6752 34.7447 28.6752 35.1174V35.6544ZM28.6752 32.5547C28.6752 32.9274 28.3729 33.2297 28.0002 33.2297C27.6274 33.2297 27.3252 32.9274 27.3252 32.5547V28.6562C27.3252 28.2834 27.6274 27.9812 28.0002 27.9812C28.3729 27.9812 28.6752 28.2834 28.6752 28.6562V32.5547ZM37.2627 24.6377H18.7377V23.0552C18.7377 21.2604 20.1979 19.8002 21.9927 19.8002H22.3519V20.2487C22.3519 20.6214 22.6542 20.9237 23.0269 20.9237C23.3997 20.9237 23.7019 20.6214 23.7019 20.2487V19.8002H32.2977V20.2487C32.2977 20.6214 32.5999 20.9237 32.9727 20.9237C33.3454 20.9237 33.6477 20.6214 33.6477 20.2487V19.8002H34.0069C35.8024 19.8002 37.2619 21.2604 37.2619 23.0552L37.2627 24.6377Z" fill="#60B0C2"/>
</svg>
