<svg width="57" height="57" viewBox="0 0 57 57" fill="none" xmlns="http://www.w3.org/2000/svg">
<rect x="0.5" y="0.5" width="56" height="56" rx="12" fill="#FFF6E7"/>
<g clip-path="url(#clip0_1_29969)">
<path d="M39.4212 20.4493L36.5508 17.5783L37.0289 17.1001C37.8216 16.3071 39.1071 16.3071 39.8999 17.1001C40.6923 17.8928 40.6923 19.1778 39.8999 19.9704L39.4212 20.4493Z" fill="#ECB860"/>
<path d="M35.2332 18.8936L38.1036 21.7646L30.3002 29.5685L26.498 30.5004L27.4298 26.6974L35.2332 18.8936Z" fill="#ECB860"/>
<path d="M20.1002 20.1002V33.3002H24.3002C25.2299 33.3002 25.9654 34.095 26.6112 34.7929C26.6216 34.804 26.632 34.8152 26.6423 34.8265C26.6765 34.8633 26.7106 34.9002 26.7441 34.936C27.1822 35.4062 27.8069 35.7002 28.5002 35.7002C29.1936 35.7002 29.8182 35.4062 30.2563 34.936C30.2966 34.8928 30.3373 34.8489 30.3783 34.8045L30.3889 34.7931C31.0346 34.0954 31.7707 33.3002 32.7002 33.3002H36.9002V29.7002C36.9002 29.0374 37.4374 28.5002 38.1002 28.5002C38.763 28.5002 39.3002 29.0374 39.3002 29.7002V37.5002C39.3002 38.4943 38.4943 39.3002 37.5002 39.3002H19.5002C18.5061 39.3002 17.7002 38.4943 17.7002 37.5002V19.5002C17.7002 18.5061 18.5061 17.7002 19.5002 17.7002H27.3002C27.9629 17.7002 28.5002 18.2375 28.5002 18.9002C28.5002 19.5629 27.9629 20.1002 27.3002 20.1002H20.1002Z" fill="#ECB860"/>
</g>
<defs>
<clipPath id="clip0_1_29969">
<rect width="24" height="24" fill="white" transform="translate(16.5 16.5)"/>
</clipPath>
</defs>
</svg>
