<svg width="56" height="57" viewBox="0 0 56 57" fill="none" xmlns="http://www.w3.org/2000/svg">
<rect y="0.5" width="56" height="56" rx="12" fill="#E9F3FE"/>
<path fill-rule="evenodd" clip-rule="evenodd" d="M20.242 17.4248H35.7584C36.9775 17.4248 37.975 18.4223 37.975 19.6414V36.4878C37.975 38.0394 36.4234 39.1477 34.9826 38.5936L33.2093 37.9286C32.6551 37.7069 32.101 37.7069 31.5468 38.0394L28.8869 39.2586C28.3327 39.4802 27.6677 39.4802 27.1136 39.2586L24.4536 38.0394C23.8994 37.8178 23.3453 37.8178 22.7911 37.9286L21.0178 38.4827C19.577 39.0369 18.0254 37.9286 18.0254 36.4878V19.6414C18.0254 18.4223 19.0229 17.4248 20.242 17.4248ZM33.5418 23.853C33.9851 23.853 34.4284 23.5205 34.4284 22.9664C34.4284 22.4122 33.9851 22.0797 33.5418 22.0797H22.4586C22.0153 22.0797 21.572 22.523 21.572 22.9664C21.572 23.4097 22.0153 23.853 22.4586 23.853H33.5418ZM34.4284 27.3996C34.4284 27.8429 34.0959 28.2863 33.5418 28.2863H22.4586C22.0153 28.2863 21.572 27.9538 21.572 27.3996C21.572 26.8455 21.9045 26.513 22.4586 26.513H33.5418C33.9851 26.513 34.4284 26.9563 34.4284 27.3996ZM28.0002 32.7195C28.4435 32.7195 28.8869 32.387 28.8869 31.8329C28.8869 31.2787 28.5544 30.9462 28.0002 30.9462H22.4586C22.0153 30.9462 21.572 31.2787 21.572 31.8329C21.572 32.387 21.9045 32.7195 22.4586 32.7195H28.0002Z" fill="#76A4EE"/>
</svg>
