<svg width="57" height="57" viewBox="0 0 57 57" fill="none" xmlns="http://www.w3.org/2000/svg">
<rect x="0.5" y="0.5" width="56" height="56" rx="12" fill="#FEECE8"/>
<g clip-path="url(#clip0_1_30003)">
<path d="M40.5 26.3218V36.2647C40.5 38.6038 38.6038 40.5 36.2647 40.5H20.7353C18.3962 40.5 16.5 38.6038 16.5 36.2647V20.7353C16.5 18.3962 18.3962 16.5 20.7353 16.5H36.2647C38.193 16.5 39.8203 17.7886 40.3324 19.5517L30.2647 29.6194L26.5285 25.8832C26.2529 25.6075 25.806 25.6075 25.5303 25.8832L23.0597 28.3538C22.784 28.6295 22.784 29.0764 23.0597 29.352L29.7656 36.0579C30.0412 36.3336 30.4882 36.3336 30.7638 36.0579L40.5 26.3218Z" fill="#D68D84"/>
</g>
<defs>
<clipPath id="clip0_1_30003">
<rect width="24" height="24" fill="white" transform="translate(16.5 16.5)"/>
</clipPath>
</defs>
</svg>
