<svg width="173" height="25" viewBox="0 0 173 25" fill="none" xmlns="http://www.w3.org/2000/svg">
<rect x="14.1631" width="1.45572" height="4.85241" rx="0.24262" fill="#FE4711"/>
<path d="M16.7781 9.25537C16.8728 9.35012 17.0273 9.35073 17.1139 9.24842C17.4352 8.86847 17.6548 8.41132 17.7496 7.92006C17.8598 7.34915 17.7966 6.75833 17.568 6.2237C17.3394 5.68907 16.956 5.23512 16.4671 4.92034C15.9782 4.60556 15.4063 4.44437 14.825 4.45753C14.2437 4.47069 13.6797 4.65761 13.2056 4.99419C12.7315 5.33077 12.369 5.8016 12.1648 6.34603C11.9607 6.89046 11.9242 7.48354 12.0602 8.04887C12.1771 8.53534 12.4171 8.98209 12.7554 9.34711C12.8465 9.44539 13.0008 9.43779 13.0911 9.33885L13.7456 8.62226C13.836 8.52332 13.8271 8.37088 13.7445 8.26536C13.6166 8.10189 13.5245 7.91218 13.4756 7.70855C13.4076 7.42589 13.4258 7.12935 13.5279 6.85713C13.63 6.58492 13.8112 6.3495 14.0483 6.18121C14.2853 6.01292 14.5673 5.91946 14.858 5.91288C15.1486 5.9063 15.4346 5.9869 15.679 6.14429C15.9235 6.30168 16.1152 6.52865 16.2295 6.79596C16.3437 7.06328 16.3754 7.35869 16.3203 7.64414C16.2806 7.84978 16.1972 8.04346 16.0768 8.21255C15.9991 8.32171 15.9971 8.47439 16.0918 8.56914L16.7781 9.25537Z" fill="#FE4711"/>
<path fill-rule="evenodd" clip-rule="evenodd" d="M3.41175 6.9248C3.14376 6.9248 2.92651 7.14205 2.92651 7.41005V17.5498H10.5797V7.41005C10.5797 7.14205 10.3625 6.9248 10.0945 6.9248H3.41175ZM5.18986 9.34833C5.11879 9.41939 5.11879 9.53376 5.11879 9.7625V10.2477C5.11879 10.4765 5.11879 10.5909 5.18986 10.6619C5.26092 10.733 5.37529 10.733 5.60403 10.733H7.545C7.77374 10.733 7.88811 10.733 7.95918 10.6619C8.03024 10.5909 8.03024 10.4765 8.03024 10.2477V9.7625C8.03024 9.53376 8.03024 9.41939 7.95918 9.34833C7.88811 9.27726 7.77374 9.27726 7.545 9.27726H5.60403C5.37529 9.27726 5.26092 9.27726 5.18986 9.34833Z" fill="#FE4711"/>
<path fill-rule="evenodd" clip-rule="evenodd" d="M13.006 11.166C12.738 11.166 12.5208 11.3833 12.5208 11.6513V17.5497H22.5487V11.6513C22.5487 11.3833 22.3314 11.166 22.0634 11.166H13.006ZM16.079 13.6299C15.945 13.6299 15.8364 13.7386 15.8364 13.8726V14.843C15.8364 14.977 15.945 15.0857 16.079 15.0857H18.9904C19.1244 15.0857 19.2331 14.977 19.2331 14.843V13.8726C19.2331 13.7386 19.1244 13.6299 18.9904 13.6299H16.079Z" fill="#FE4711"/>
<path fill-rule="evenodd" clip-rule="evenodd" d="M2.4262 19.4907C1.08625 19.4907 0 20.577 0 21.9169C0 23.2569 1.08625 24.3431 2.4262 24.3431H23.0489C24.3889 24.3431 25.4751 23.2569 25.4751 21.9169C25.4751 20.577 24.3889 19.4907 23.0489 19.4907H2.4262ZM2.06222 21.1892C1.66023 21.1892 1.33435 21.515 1.33435 21.917C1.33435 22.319 1.66023 22.6449 2.06222 22.6449C2.4642 22.6449 2.79008 22.319 2.79008 21.917C2.79008 21.515 2.4642 21.1892 2.06222 21.1892ZM6.67201 21.917C6.67201 21.515 6.99788 21.1892 7.39987 21.1892C7.80185 21.1892 8.12773 21.515 8.12773 21.917C8.12773 22.319 7.80185 22.6449 7.39987 22.6449C6.99788 22.6449 6.67201 22.319 6.67201 21.917ZM12.7375 21.1892C12.3355 21.1892 12.0096 21.515 12.0096 21.917C12.0096 22.319 12.3355 22.6449 12.7375 22.6449C13.1395 22.6449 13.4654 22.319 13.4654 21.917C13.4654 21.515 13.1395 21.1892 12.7375 21.1892ZM17.3473 21.917C17.3473 21.515 17.6732 21.1892 18.0752 21.1892C18.4772 21.1892 18.803 21.515 18.803 21.917C18.803 22.319 18.4772 22.6449 18.0752 22.6449C17.6732 22.6449 17.3473 22.319 17.3473 21.917ZM23.4128 21.1892C23.0108 21.1892 22.6849 21.515 22.6849 21.917C22.6849 22.319 23.0108 22.6449 23.4128 22.6449C23.8148 22.6449 24.1407 22.319 24.1407 21.917C24.1407 21.515 23.8148 21.1892 23.4128 21.1892Z" fill="#FE4711"/>
<path d="M42.2351 19.2715C39.5951 19.2715 37.5751 18.6648 36.1751 17.4515C34.7751 16.2248 34.0751 14.4115 34.0751 12.0115C34.0751 9.62484 34.7751 7.81818 36.1751 6.59151C37.5751 5.36484 39.5951 4.75818 42.2351 4.77151L49.4351 4.81151V7.37151H42.4551C40.7218 7.37151 39.4351 7.73817 38.5951 8.47151C37.7551 9.20484 37.3351 10.3848 37.3351 12.0115C37.3351 13.6382 37.7551 14.8248 38.5951 15.5715C39.4351 16.3048 40.7218 16.6715 42.4551 16.6715H49.6351V19.2715H42.2351ZM54.0729 19.1715C52.9929 19.1715 52.1662 18.8982 51.5929 18.3515C51.0196 17.8048 50.7329 17.0248 50.7329 16.0115C50.7329 15.0115 51.0196 14.2382 51.5929 13.6915C52.1662 13.1448 52.9929 12.8715 54.0729 12.8715H61.7529V12.3915C61.7529 11.5782 61.3529 11.1715 60.5529 11.1715H52.0729V8.87151H61.3129C62.5262 8.87151 63.3862 9.15151 63.8929 9.71151C64.3996 10.2582 64.6529 11.0315 64.6529 12.0315V19.1715H54.0729ZM54.5929 16.8715H61.7529V15.1715H54.5929C54.3396 15.1715 54.1396 15.2515 53.9929 15.4115C53.8596 15.5582 53.7929 15.7582 53.7929 16.0115C53.7929 16.2648 53.8596 16.4715 53.9929 16.6315C54.1396 16.7915 54.3396 16.8715 54.5929 16.8715ZM66.8603 19.1715V8.87151H74.7403C75.9003 8.87151 76.7536 9.16484 77.3003 9.75151C77.8469 10.3248 78.1203 11.0848 78.1203 12.0315V14.1715H75.1803V12.3915C75.1803 11.5915 74.7803 11.1915 73.9803 11.1915H69.8003V19.1715H66.8603ZM82.5424 23.6715V21.3715H88.5824C89.3824 21.3715 89.7824 20.9648 89.7824 20.1515V19.1715H85.3824C83.5958 19.1715 82.2024 18.7315 81.2024 17.8515C80.2024 16.9715 79.7024 15.6982 79.7024 14.0315C79.7024 12.3515 80.2024 11.0715 81.2024 10.1915C82.2024 9.31151 83.5958 8.87151 85.3824 8.87151H92.6824V20.5115C92.6824 21.4582 92.4091 22.2182 91.8624 22.7915C91.3158 23.3782 90.4624 23.6715 89.3024 23.6715H82.5424ZM85.3824 16.8715H89.7824V11.1715H85.3824C84.5158 11.1715 83.8491 11.4115 83.3824 11.8915C82.9291 12.3582 82.7024 13.0715 82.7024 14.0315C82.7024 14.9782 82.9291 15.6915 83.3824 16.1715C83.8491 16.6382 84.5158 16.8715 85.3824 16.8715ZM100.168 19.2715C98.3809 19.2715 96.9876 18.8315 95.9876 17.9515C94.9876 17.0582 94.4876 15.7515 94.4876 14.0315C94.4876 12.2982 94.9876 10.9915 95.9876 10.1115C96.9876 9.21817 98.3809 8.77151 100.168 8.77151H103.868C105.654 8.77151 107.048 9.21817 108.048 10.1115C109.048 10.9915 109.548 12.2982 109.548 14.0315C109.548 15.7515 109.048 17.0582 108.048 17.9515C107.048 18.8315 105.654 19.2715 103.868 19.2715H100.168ZM100.168 16.9715H103.868C104.734 16.9715 105.394 16.7315 105.848 16.2515C106.314 15.7715 106.548 15.0315 106.548 14.0315C106.548 13.0182 106.314 12.2715 105.848 11.7915C105.394 11.3115 104.734 11.0715 103.868 11.0715H100.168C99.3009 11.0715 98.6343 11.3115 98.1676 11.7915C97.7143 12.2715 97.4876 13.0182 97.4876 14.0315C97.4876 15.0315 97.7143 15.7715 98.1676 16.2515C98.6343 16.7315 99.3009 16.9715 100.168 16.9715ZM119.012 19.2715C116.372 19.2715 114.352 18.6648 112.952 17.4515C111.552 16.2248 110.852 14.4115 110.852 12.0115C110.852 9.62484 111.552 7.81818 112.952 6.59151C114.352 5.36484 116.372 4.75818 119.012 4.77151L126.212 4.81151V7.37151H119.232C117.499 7.37151 116.212 7.73817 115.372 8.47151C114.532 9.20484 114.112 10.3848 114.112 12.0115C114.112 13.6382 114.532 14.8248 115.372 15.5715C116.212 16.3048 117.499 16.6715 119.232 16.6715H126.412V19.2715H119.012ZM133.39 19.2715C131.604 19.2715 130.21 18.8315 129.21 17.9515C128.21 17.0582 127.71 15.7515 127.71 14.0315C127.71 12.2982 128.21 10.9915 129.21 10.1115C130.21 9.21817 131.604 8.77151 133.39 8.77151H137.09C138.877 8.77151 140.27 9.21817 141.27 10.1115C142.27 10.9915 142.77 12.2982 142.77 14.0315C142.77 15.7515 142.27 17.0582 141.27 17.9515C140.27 18.8315 138.877 19.2715 137.09 19.2715H133.39ZM133.39 16.9715H137.09C137.957 16.9715 138.617 16.7315 139.07 16.2515C139.537 15.7715 139.77 15.0315 139.77 14.0315C139.77 13.0182 139.537 12.2715 139.07 11.7915C138.617 11.3115 137.957 11.0715 137.09 11.0715H133.39C132.524 11.0715 131.857 11.3115 131.39 11.7915C130.937 12.2715 130.71 13.0182 130.71 14.0315C130.71 15.0315 130.937 15.7715 131.39 16.2515C131.857 16.7315 132.524 16.9715 133.39 16.9715ZM144.575 19.1715V8.87151H152.455C153.615 8.87151 154.468 9.16484 155.015 9.75151C155.562 10.3248 155.835 11.0848 155.835 12.0315V14.1715H152.895V12.3915C152.895 11.5915 152.495 11.1915 151.695 11.1915H147.515V19.1715H144.575ZM163.097 19.2715C161.311 19.2715 159.917 18.8315 158.917 17.9515C157.917 17.0582 157.417 15.7515 157.417 14.0315C157.417 12.2982 157.917 10.9915 158.917 10.1115C159.917 9.21817 161.311 8.77151 163.097 8.77151H168.097C169.271 8.77151 170.164 9.05151 170.777 9.61151C171.404 10.1582 171.717 10.9448 171.717 11.9715C171.717 14.0648 170.511 15.1115 168.097 15.1115H160.537C160.817 16.3515 161.671 16.9715 163.097 16.9715H171.197V19.2715H163.097ZM163.097 11.0715C161.724 11.0715 160.877 11.6515 160.557 12.8115H167.957C168.224 12.8115 168.431 12.7315 168.577 12.5715C168.737 12.4115 168.817 12.1915 168.817 11.9115C168.817 11.3515 168.531 11.0715 167.957 11.0715H163.097Z" fill="#3A3C3F"/>
</svg>
